<svg width="24" height="24" viewBox="0 0 24 24" fill="none" xmlns="http://www.w3.org/2000/svg">
<g clip-path="url(#clip0_69_459)">
<path d="M8.25 21.75C9.07843 21.75 9.75 21.0784 9.75 20.25C9.75 19.4216 9.07843 18.75 8.25 18.75C7.42157 18.75 6.75 19.4216 6.75 20.25C6.75 21.0784 7.42157 21.75 8.25 21.75Z" fill="#313131"/>
<path d="M18 21.75C18.8284 21.75 19.5 21.0784 19.5 20.25C19.5 19.4216 18.8284 18.75 18 18.75C17.1716 18.75 16.5 19.4216 16.5 20.25C16.5 21.0784 17.1716 21.75 18 21.75Z" fill="#313131"/>
<path d="M1.5 3H3.75L7.19531 15.4012C7.28299 15.7171 7.47171 15.9955 7.73261 16.1939C7.99351 16.3924 8.31222 16.4999 8.64 16.5H17.9062C18.2342 16.5001 18.5531 16.3927 18.8142 16.1942C19.0753 15.9958 19.2642 15.7172 19.3519 15.4012L21.75 6.75H4.79156" stroke="#313131" stroke-width="2" stroke-linecap="round" stroke-linejoin="round"/>
</g>
<defs>
<clipPath id="clip0_69_459">
<rect width="24" height="24" fill="white"/>
</clipPath>
</defs>
</svg>
