<svg width="22" height="22" viewBox="0 0 22 22" fill="none" xmlns="http://www.w3.org/2000/svg">
<path d="M20.0907 0.345886H1.68194C0.800417 0.345886 0.0859375 1.03853 0.0859375 1.89341V20.3976C0.0859375 21.2525 0.800657 21.9459 1.68194 21.9459H20.0907C20.9722 21.9459 21.6857 21.2523 21.6857 20.3976V1.89341C21.6857 1.03877 20.9722 0.345886 20.0907 0.345886ZM6.63434 18.4265H3.37082V8.67437H6.63434V18.4265ZM5.00282 7.34213H4.98098C3.88658 7.34213 3.17714 6.59357 3.17714 5.65661C3.17714 4.70069 3.90746 3.97253 5.02346 3.97253C6.1397 3.97253 6.82634 4.70045 6.84794 5.65661C6.84794 6.59381 6.13994 7.34213 5.00282 7.34213ZM18.3987 18.4265H15.1361V13.2089C15.1361 11.8976 14.6633 11.0031 13.4835 11.0031C12.5808 11.0031 12.0451 11.6067 11.8099 12.1892C11.7226 12.3975 11.7012 12.6884 11.7012 12.9792V18.4263H8.43914C8.43914 18.4263 8.48186 9.58876 8.43914 8.67412H11.7015V10.0568C12.1347 9.39244 12.9084 8.44469 14.6412 8.44469C16.7885 8.44469 18.3987 9.83765 18.3987 12.8345V18.4265ZM11.6803 10.0877C11.6861 10.0786 11.6938 10.0676 11.7015 10.057V10.0877H11.6803Z" fill="#FFCD00"/>
</svg>
