<svg width="24" height="28" viewBox="0 0 24 28" fill="none" xmlns="http://www.w3.org/2000/svg">
<path d="M23.2798 10.84C23.0926 8.89188 22.4041 7.02544 21.2814 5.42242C20.1587 3.8194 18.64 2.53444 16.8732 1.69265C15.1064 0.850869 13.1517 0.480955 11.1995 0.618933C9.24724 0.75691 7.36402 1.39808 5.73317 2.48C4.3321 3.41686 3.15591 4.65239 2.2891 6.09785C1.42229 7.54331 0.886368 9.1628 0.719841 10.84C0.556485 12.5062 0.766073 14.1879 1.3334 15.763C1.90073 17.3382 2.81157 18.7673 3.99984 19.9467L11.0665 27.0267C11.1905 27.1516 11.3379 27.2508 11.5004 27.3185C11.6629 27.3862 11.8372 27.4211 12.0132 27.4211C12.1892 27.4211 12.3635 27.3862 12.5259 27.3185C12.6884 27.2508 12.8359 27.1516 12.9598 27.0267L19.9998 19.9467C21.1881 18.7673 22.099 17.3382 22.6663 15.763C23.2336 14.1879 23.4432 12.5062 23.2798 10.84ZM18.1332 18.0667L11.9998 24.2L5.86651 18.0667C4.96263 17.1627 4.27024 16.0698 3.83913 14.8663C3.40802 13.6629 3.24889 12.3789 3.37317 11.1067C3.49827 9.8148 3.90886 8.56687 4.57527 7.45312C5.24168 6.33936 6.14725 5.3876 7.22651 4.66666C8.6411 3.72698 10.3016 3.22572 11.9998 3.22572C13.6981 3.22572 15.3586 3.72698 16.7732 4.66666C17.8492 5.38482 18.7527 6.33237 19.419 7.44125C20.0852 8.55012 20.4976 9.7928 20.6265 11.08C20.7548 12.3566 20.5977 13.6457 20.1665 14.8541C19.7353 16.0624 19.0407 17.1598 18.1332 18.0667ZM11.9998 6C10.8132 6 9.65312 6.35189 8.66642 7.01118C7.67973 7.67047 6.91069 8.60754 6.45656 9.70389C6.00244 10.8003 5.88362 12.0067 6.11513 13.1705C6.34664 14.3344 6.91809 15.4035 7.7572 16.2426C8.59632 17.0818 9.66541 17.6532 10.8293 17.8847C11.9932 18.1162 13.1996 17.9974 14.2959 17.5433C15.3923 17.0891 16.3294 16.3201 16.9887 15.3334C17.6479 14.3467 17.9998 13.1867 17.9998 12C17.9963 10.4098 17.363 8.8857 16.2386 7.76124C15.1141 6.63679 13.5901 6.00352 11.9998 6ZM11.9998 15.3333C11.3406 15.3333 10.6961 15.1378 10.1479 14.7716C9.59978 14.4053 9.17253 13.8847 8.92024 13.2756C8.66795 12.6665 8.60194 11.9963 8.73056 11.3497C8.85917 10.7031 9.17664 10.1091 9.64282 9.64297C10.109 9.1768 10.7029 8.85933 11.3495 8.73071C11.9961 8.60209 12.6664 8.6681 13.2755 8.9204C13.8845 9.17269 14.4051 9.59993 14.7714 10.1481C15.1377 10.6963 15.3332 11.3407 15.3332 12C15.3332 12.8841 14.982 13.7319 14.3569 14.357C13.7317 14.9821 12.8839 15.3333 11.9998 15.3333Z" fill="#F5993C"/>
</svg>
