<svg width="160" height="46" viewBox="0 0 160 46" fill="none" xmlns="http://www.w3.org/2000/svg">
<g clip-path="url(#clip0_4_2171)">
<path d="M41.1034 31.5357L43.9085 30.9931C44.4396 29.001 44.521 28.6933 45.0512 26.7012L42.8875 24.8356C42.8856 23.3315 42.8846 22.6068 42.8817 21.1026L45.0397 19.2304C44.5028 17.2392 44.4204 16.9325 43.8835 14.9423L41.0766 14.4083C40.3221 13.1065 39.9598 12.4805 39.2053 11.1786L40.1381 8.47806C38.678 7.02282 38.4527 6.79753 36.9927 5.34229L34.295 6.28273C32.9913 5.5321 32.3633 5.17165 31.0596 4.42102L30.517 1.61599C28.5249 1.08489 28.2172 1.0034 26.2251 0.473267L24.3595 2.63696C22.8554 2.63887 22.1306 2.63983 20.6265 2.64271L18.7571 0.485729C16.766 1.02258 16.4592 1.10502 14.469 1.64187L13.9351 4.44882C12.6332 5.20328 12.0072 5.56566 10.7053 6.32012L8.00481 5.38735C6.54957 6.84738 6.32428 7.07267 4.86904 8.5327L5.81044 11.2304C5.05981 12.5341 4.69936 13.1621 3.94873 14.4658L1.1437 15.0084C0.6126 17.0005 0.531114 17.3083 0.000976562 19.3003L2.16467 21.1659C2.16658 22.67 2.16754 23.3948 2.17042 24.8989L0.0115218 26.7683C0.54837 28.7594 0.630815 29.0662 1.16766 31.0564L3.97461 31.5903C4.72908 32.8922 5.09145 33.5182 5.84591 34.8201L4.91314 37.5206C6.37318 38.9758 6.59846 39.2011 8.0585 40.6564L10.7562 39.7159C12.0599 40.4666 12.6879 40.827 13.9916 41.5776L14.5342 44.3827C16.5263 44.9138 16.8341 44.9953 18.8261 45.5254L20.6917 43.3617C22.1958 43.3598 22.9206 43.3588 24.4247 43.3559L26.297 45.5139C28.2881 44.977 28.5949 44.8946 30.585 44.3577L31.119 41.5508C32.4209 40.7963 33.0469 40.434 34.3487 39.6795L37.0493 40.6123C38.5045 39.1522 38.7298 38.927 40.185 37.4669L39.2446 34.7693C39.9952 33.4655 40.3557 32.8376 41.1063 31.5338L41.1034 31.5357ZM22.5496 39.019C13.7021 39.0324 6.51985 31.8712 6.50643 23.0238C6.49301 14.1763 13.6542 6.99406 22.5016 6.98064C31.3491 6.96722 38.5314 14.1284 38.5448 22.9758C38.5582 31.8233 31.397 39.0056 22.5496 39.019Z" fill="white"/>
<path d="M23.4258 37.2409C25.2281 37.1441 26.9412 36.7127 28.5048 36.0071V13.7001H29.913V10.7254C27.9947 9.58744 25.787 8.88666 23.4258 8.75916V37.2409Z" fill="white"/>
<path d="M15.4412 10.6899V13.701H16.789V29.9474C14.5583 28.4366 12.941 26.0859 12.3926 23.3499L8.8667 26.6928C10.4293 32.5396 15.6128 36.9063 21.868 37.2418V8.75916C19.5318 8.88474 17.3451 9.5721 15.4412 10.6899Z" fill="white"/>
<path d="M35.8872 24.9308C35.8872 24.879 35.8968 24.8301 35.916 24.7841C35.9351 24.7381 35.962 24.6978 35.9955 24.6633C36.0291 24.6288 36.0694 24.6029 36.1163 24.5837C36.1623 24.5645 36.2112 24.555 36.263 24.555C36.3148 24.555 36.3637 24.5645 36.4097 24.5837C36.4557 24.6029 36.496 24.6297 36.5305 24.6633C36.564 24.6978 36.5909 24.7371 36.61 24.7841C36.6292 24.8301 36.6388 24.879 36.6388 24.9308C36.6388 24.9825 36.6292 25.0314 36.61 25.0774C36.5909 25.1234 36.564 25.1637 36.5305 25.1982C36.4969 25.2327 36.4566 25.2586 36.4097 25.2778C36.3637 25.297 36.3148 25.3065 36.263 25.3065C36.2112 25.3065 36.1623 25.297 36.1163 25.2778C36.0703 25.2586 36.03 25.2318 35.9955 25.1982C35.961 25.1647 35.9351 25.1244 35.916 25.0774C35.8968 25.0314 35.8872 24.9825 35.8872 24.9308Z" fill="white"/>
<path d="M33.2005 25.0554C33.0586 24.925 32.9474 24.7697 32.8659 24.5866C32.8343 24.5157 32.8084 24.4418 32.7892 24.3642C32.6972 24.4974 32.5821 24.6019 32.4431 24.6777C32.2993 24.7553 32.1345 24.7937 31.9485 24.7937C31.7855 24.7937 31.6331 24.7611 31.4922 24.6949C31.3503 24.6288 31.2276 24.5368 31.1231 24.4188C31.0186 24.3009 30.9361 24.161 30.8757 23.9999C30.8153 23.8388 30.7856 23.6615 30.7856 23.4678C30.7856 23.2742 30.8153 23.1016 30.8757 22.9387C30.9361 22.7757 31.0195 22.6348 31.1259 22.5169C31.2324 22.3989 31.3589 22.3069 31.5046 22.2408C31.6503 22.1746 31.8085 22.142 31.9792 22.142C32.1498 22.142 32.3003 22.1708 32.4297 22.2293C32.5601 22.2877 32.6694 22.3711 32.7585 22.4795L33.4564 21.9091C33.3673 21.7969 33.2666 21.702 33.1535 21.6243C33.0413 21.5467 32.9234 21.4844 32.8017 21.4384C32.6799 21.3914 32.5553 21.3578 32.4297 21.3368C32.3032 21.3157 32.1824 21.3051 32.0664 21.3051C31.7443 21.3051 31.4471 21.3559 31.1758 21.4566C30.9045 21.5572 30.6696 21.702 30.4721 21.8899C30.2747 22.0778 30.1203 22.306 30.0091 22.5734C29.8989 22.8409 29.8433 23.14 29.8433 23.4698C29.8433 23.7995 29.8989 24.0986 30.0091 24.3661C30.1194 24.6336 30.2737 24.8617 30.4721 25.0496C30.6696 25.2375 30.9045 25.3823 31.1758 25.4829C31.4471 25.5836 31.7443 25.6344 32.0664 25.6344C32.3492 25.6344 32.6253 25.5759 32.8928 25.4599C33.0596 25.3871 33.2082 25.2903 33.3385 25.1685C33.2906 25.134 33.2446 25.0976 33.2014 25.0583L33.2005 25.0554Z" fill="white"/>
<path d="M33.0449 23.7976C33.0449 23.5723 33.0823 23.3691 33.158 23.1869C33.2338 23.0048 33.3364 22.8485 33.4677 22.7182C33.599 22.5878 33.7534 22.4881 33.9307 22.4181C34.1081 22.3481 34.2979 22.3136 34.4982 22.3136C34.6986 22.3136 34.8884 22.3481 35.0658 22.4181C35.2431 22.4881 35.3975 22.5878 35.5288 22.7182C35.6601 22.8485 35.7627 23.0048 35.8384 23.1869C35.9142 23.3691 35.9516 23.5733 35.9516 23.7976C35.9516 24.0219 35.9142 24.2261 35.8384 24.4083C35.7627 24.5904 35.6601 24.7467 35.5288 24.8771C35.3975 25.0074 35.2431 25.1071 35.0658 25.1771C34.8884 25.2471 34.6986 25.2816 34.4982 25.2816C34.2979 25.2816 34.1081 25.2471 33.9307 25.1771C33.7534 25.1071 33.599 25.0074 33.4677 24.8771C33.3364 24.7467 33.2338 24.5914 33.158 24.4083C33.0823 24.2261 33.0449 24.0219 33.0449 23.7976ZM33.8531 23.7976C33.8531 24.0114 33.9096 24.1839 34.0228 24.3153C34.1359 24.4476 34.295 24.5128 34.4992 24.5128C34.7034 24.5128 34.8625 24.4466 34.9757 24.3153C35.0888 24.183 35.1453 24.0104 35.1453 23.7976C35.1453 23.5848 35.0888 23.4113 34.9757 23.2799C34.8625 23.1476 34.7034 23.0824 34.4992 23.0824C34.295 23.0824 34.1359 23.1486 34.0228 23.2799C33.9096 23.4122 33.8531 23.5848 33.8531 23.7976Z" fill="white"/>
<path d="M62.0053 18.2451C61.7694 18.8711 61.4425 19.3935 61.0255 19.8115C60.6075 20.2295 60.109 20.542 59.53 20.751C58.951 20.96 58.3106 21.0645 57.6108 21.0645C56.5198 21.0645 55.61 20.8459 54.8824 20.4078C54.1548 19.9707 53.5556 19.4281 53.084 18.781L54.7204 17.1033C55.1374 17.6287 55.566 18.0361 56.0031 18.3256C56.4402 18.6151 56.9627 18.7599 57.5695 18.7599C58.2435 18.7599 58.7851 18.5346 59.1964 18.0831C59.6077 17.6315 59.8128 16.9346 59.8128 15.9913V6.71625H62.359V16.0517C62.359 16.8866 62.2411 17.6181 62.0053 18.2441V18.2451Z" fill="white"/>
<path d="M68.2787 6.61558H70.0167V20.8612H67.551V9.14069L65.0048 9.84818L64.4795 7.82733L68.2787 6.61462V6.61558Z" fill="white"/>
<path d="M92.0828 16.5674C91.7195 17.436 91.2037 18.1875 90.5375 18.8203C89.8702 19.4539 89.0755 19.9515 88.1533 20.3158C87.2301 20.6791 86.2168 20.8612 85.1124 20.8612H79.8379V6.71625H85.1124C86.2168 6.71625 87.2311 6.89456 88.1533 7.25214C89.0755 7.60972 89.8712 8.10438 90.5375 8.7371C91.2047 9.37077 91.7195 10.1185 92.0828 10.9804C92.4462 11.8422 92.6283 12.7721 92.6283 13.7691C92.6283 14.7661 92.4462 15.6989 92.0828 16.5674ZM89.667 11.8719C89.4302 11.2833 89.0995 10.7733 88.6748 10.34C88.2492 9.90666 87.7324 9.56921 87.1246 9.32476C86.5169 9.08126 85.841 8.95951 85.099 8.95951H82.3026V18.6189H85.099C85.842 18.6189 86.5169 18.501 87.1246 18.2642C87.7324 18.0275 88.2492 17.6958 88.6748 17.2701C89.1004 16.8435 89.4312 16.3364 89.667 15.7478C89.9028 15.1591 90.0217 14.513 90.0217 13.8094C90.0217 13.1057 89.9028 12.4605 89.667 11.8719Z" fill="white"/>
<path d="M109.259 16.5981C108.896 17.4868 108.383 18.2652 107.724 18.9324C107.063 19.5996 106.282 20.1279 105.38 20.519C104.477 20.9092 103.481 21.1047 102.389 21.1047C101.297 21.1047 100.301 20.913 99.3976 20.5286C98.4945 20.1451 97.7199 19.6226 97.0738 18.9621C96.4267 18.3026 95.9225 17.527 95.5582 16.6383C95.1948 15.7497 95.0127 14.8063 95.0127 13.8093C95.0127 12.8123 95.1948 11.869 95.5582 10.9803C95.9215 10.0917 96.4334 9.31324 97.0939 8.64601C97.7535 7.97879 98.5358 7.45057 99.4379 7.05943C100.34 6.66926 101.337 6.47369 102.429 6.47369C103.521 6.47369 104.517 6.66542 105.42 7.04985C106.322 7.43331 107.098 7.95578 107.744 8.61629C108.391 9.27681 108.895 10.0514 109.259 10.9401C109.623 11.8288 109.805 12.7721 109.805 13.7691C109.805 14.7661 109.623 15.7094 109.259 16.5981ZM106.844 11.8594C106.609 11.2469 106.279 10.711 105.854 10.2527C105.429 9.79448 104.921 9.43115 104.329 9.16177C103.736 8.89239 103.089 8.75722 102.389 8.75722C101.688 8.75722 101.045 8.88855 100.459 9.15123C99.8731 9.4139 99.3708 9.77052 98.9537 10.222C98.5358 10.6736 98.2089 11.2056 97.974 11.8182C97.7382 12.4318 97.6202 13.0808 97.6202 13.7681C97.6202 14.4555 97.7382 15.1054 97.974 15.718C98.2098 16.3316 98.5396 16.8665 98.9643 17.3247C99.389 17.783 99.8971 18.1463 100.49 18.4157C101.082 18.6851 101.729 18.8202 102.43 18.8202C103.131 18.8202 103.774 18.6889 104.36 18.4262C104.945 18.1636 105.448 17.8069 105.865 17.3554C106.282 16.9039 106.609 16.3718 106.844 15.7593C107.08 15.1467 107.198 14.4967 107.198 13.8093C107.198 13.122 107.08 12.472 106.844 11.8594Z" fill="white"/>
<path d="M126.435 16.5981C126.071 17.4868 125.558 18.2652 124.899 18.9324C124.238 19.5996 123.457 20.1279 122.555 20.519C121.652 20.9092 120.656 21.1047 119.564 21.1047C118.472 21.1047 117.476 20.913 116.573 20.5286C115.67 20.1451 114.895 19.6226 114.249 18.9621C113.602 18.3026 113.098 17.527 112.733 16.6383C112.37 15.7497 112.188 14.8063 112.188 13.8093C112.188 12.8123 112.37 11.869 112.733 10.9803C113.097 10.0917 113.609 9.31324 114.269 8.64601C114.929 7.97879 115.711 7.45057 116.613 7.05943C117.515 6.66926 118.512 6.47369 119.604 6.47369C120.696 6.47369 121.692 6.66542 122.595 7.04985C123.497 7.43331 124.273 7.95578 124.919 8.61629C125.566 9.27681 126.07 10.0514 126.435 10.9401C126.798 11.8288 126.98 12.7721 126.98 13.7691C126.98 14.7661 126.798 15.7094 126.435 16.5981ZM124.02 11.8594C123.784 11.2469 123.454 10.711 123.029 10.2527C122.605 9.79448 122.097 9.43115 121.504 9.16177C120.911 8.89239 120.265 8.75722 119.564 8.75722C118.863 8.75722 118.22 8.88855 117.634 9.15123C117.048 9.4139 116.546 9.77052 116.129 10.222C115.711 10.6736 115.384 11.2056 115.149 11.8182C114.913 12.4318 114.796 13.0808 114.796 13.7681C114.796 14.4555 114.913 15.1054 115.149 15.718C115.385 16.3316 115.715 16.8665 116.14 17.3247C116.564 17.783 117.072 18.1463 117.665 18.4157C118.257 18.6851 118.904 18.8202 119.605 18.8202C120.306 18.8202 120.949 18.6889 121.535 18.4262C122.121 18.1636 122.623 17.8069 123.04 17.3554C123.457 16.9039 123.784 16.3718 124.02 15.7593C124.256 15.1467 124.373 14.4967 124.373 13.8093C124.373 13.122 124.256 12.472 124.02 11.8594Z" fill="white"/>
<path d="M139.064 20.8612L135.577 15.9309H132.456V20.8612H129.99V6.71625H136.295C137.103 6.71625 137.834 6.82074 138.488 7.02973C139.141 7.23872 139.694 7.53494 140.145 7.9184C140.597 8.30187 140.944 8.77449 141.186 9.33338C141.429 9.89228 141.55 10.5154 141.55 11.2028C141.55 11.7962 141.465 12.3244 141.298 12.7893C141.129 13.2543 140.897 13.6656 140.601 14.0222C140.304 14.3798 139.951 14.6827 139.539 14.9319C139.128 15.1812 138.674 15.3729 138.175 15.5081L141.995 20.8632H139.065L139.064 20.8612ZM138.254 9.55771C137.74 9.15891 137.017 8.95951 136.085 8.95951H132.457V13.7288H136.106C136.997 13.7288 137.706 13.5122 138.234 13.0798C138.761 12.6465 139.025 12.0646 139.025 11.3341C139.025 10.5499 138.768 9.95747 138.254 9.55867V9.55771Z" fill="white"/>
<path d="M65.6421 38.0615C65.2443 38.3644 64.8167 38.6271 64.3594 38.8495C63.9012 39.0719 63.3998 39.2406 62.8543 39.3547C62.3089 39.4688 61.7059 39.5263 61.0454 39.5263C60.0081 39.5263 59.0513 39.3375 58.1761 38.9607C57.2999 38.584 56.5425 38.0682 55.9031 37.4144C55.2627 36.7615 54.7613 35.9898 54.398 35.1012C54.0347 34.2125 53.8525 33.2557 53.8525 32.2319C53.8525 31.208 54.0309 30.2714 54.3884 29.3828C54.7451 28.4941 55.2474 27.7157 55.8935 27.0484C56.5406 26.3812 57.3075 25.8559 58.1972 25.4724C59.0859 25.088 60.0694 24.8962 61.147 24.8962C61.7941 24.8962 62.3827 24.9499 62.9147 25.0583C63.4468 25.1666 63.9347 25.318 64.3796 25.5127C64.8244 25.7082 65.2347 25.9402 65.6124 26.2096C65.9891 26.479 66.3467 26.7752 66.6832 27.0983L65.0871 28.937C64.5214 28.4116 63.9213 27.987 63.2886 27.6639C62.6549 27.3408 61.935 27.1788 61.1268 27.1788C60.4529 27.1788 59.8298 27.3101 59.2575 27.5728C58.6851 27.8355 58.1895 28.1921 57.7725 28.6436C57.3545 29.0952 57.0315 29.6234 56.8023 30.2302C56.5732 30.8361 56.4591 31.4899 56.4591 32.1907C56.4591 32.8914 56.5732 33.5481 56.8023 34.1607C57.0315 34.7743 57.3545 35.3092 57.7725 35.7674C58.1895 36.2257 58.6851 36.5861 59.2575 36.8488C59.8298 37.1115 60.4529 37.2428 61.1268 37.2428C61.9887 37.2428 62.7297 37.0779 63.35 36.7481C63.9693 36.4183 64.5828 35.9697 65.1887 35.4041L66.7848 37.0204C66.4215 37.4115 66.04 37.7576 65.6431 38.0615H65.6421Z" fill="white"/>
<path d="M82.6055 35.0196C82.2422 35.9083 81.7293 36.6868 81.0697 37.354C80.4092 38.0212 79.6279 38.5494 78.7258 38.9406C77.8228 39.3307 76.8267 39.5263 75.7348 39.5263C74.6429 39.5263 73.6468 39.3346 72.7438 38.9501C71.8407 38.5667 71.0661 38.0442 70.42 37.3837C69.7729 36.7241 69.2687 35.9486 68.9044 35.0599C68.541 34.1712 68.3589 33.2279 68.3589 32.2309C68.3589 31.2339 68.541 30.2906 68.9044 29.4019C69.2677 28.5132 69.7796 27.7348 70.4401 27.0676C71.0997 26.4004 71.882 25.8721 72.784 25.481C73.6861 25.0908 74.6832 24.8953 75.7751 24.8953C76.867 24.8953 77.863 25.087 78.7661 25.4714C79.6682 25.8549 80.4437 26.3773 81.0899 27.0379C81.737 27.6984 82.2412 28.473 82.6055 29.3616C82.9688 30.2503 83.151 31.1936 83.151 32.1906C83.151 33.1877 82.9688 34.131 82.6055 35.0196ZM80.1916 30.281C79.9558 29.6684 79.626 29.1325 79.2013 28.6743C78.7766 28.2161 78.2685 27.8527 77.6761 27.5833C77.0827 27.314 76.4365 27.1788 75.7358 27.1788C75.035 27.1788 74.3917 27.3101 73.806 27.5728C73.2202 27.8355 72.7179 28.1921 72.3009 28.6436C71.8829 29.0951 71.556 29.6272 71.3211 30.2398C71.0853 30.8533 70.9674 31.5023 70.9674 32.1897C70.9674 32.877 71.0853 33.527 71.3211 34.1396C71.557 34.7531 71.8867 35.2881 72.3114 35.7463C72.7361 36.2045 73.2442 36.5679 73.8367 36.8373C74.4291 37.1066 75.0762 37.2418 75.777 37.2418C76.4778 37.2418 77.121 37.1105 77.7068 36.8478C78.2925 36.5851 78.7948 36.2285 79.2119 35.777C79.6289 35.3255 79.9558 34.7934 80.1916 34.1808C80.4274 33.5682 80.5453 32.9183 80.5453 32.2309C80.5453 31.5436 80.4274 30.8936 80.1916 30.281Z" fill="white"/>
<path d="M93.1335 35.8077H93.0529L88.6278 29.1795V39.2828H86.1621V25.1378H88.809L93.1133 31.8263L97.4177 25.1378H100.065V39.2828H97.5989V29.1392L93.1335 35.8077Z" fill="white"/>
<path d="M114.209 31.9893C113.912 32.5952 113.506 33.1004 112.993 33.505C112.481 33.9095 111.879 34.2154 111.191 34.4243C110.502 34.6333 109.767 34.7378 108.983 34.7378H106.168V39.2847H103.702V25.1397H109.28C110.101 25.1397 110.846 25.2509 111.512 25.4734C112.18 25.6958 112.745 26.016 113.21 26.433C113.675 26.8509 114.032 27.3494 114.281 27.9285C114.53 28.5075 114.655 29.1613 114.655 29.8889C114.655 30.6837 114.506 31.3844 114.209 31.9903V31.9893ZM111.298 28.0205C110.743 27.5949 110 27.3811 109.067 27.3811H106.167V32.4936H109.067C110.013 32.4936 110.76 32.2607 111.307 31.7938C111.855 31.3269 112.129 30.7086 112.129 29.9378C112.129 29.0856 111.852 28.4471 111.298 28.0205Z" fill="white"/>
<path d="M129.325 39.2838H126.698L125.263 35.869H118.575L117.119 39.2838H114.573L120.797 25.0381H123.1L129.324 39.2838H129.325ZM121.909 28.008L119.484 33.666H124.354L121.909 28.008Z" fill="white"/>
<path d="M141.611 25.1388H144.076V39.2838H141.999L134.215 29.2207V39.2838H131.749V25.1388H134.048L141.61 34.919V25.1388H141.611Z" fill="white"/>
<path d="M154.382 39.2838H151.877V33.7063L146.259 25.1388H149.188L153.149 31.4026L157.15 25.1388H159.999L154.381 33.6459V39.2838H154.382Z" fill="white"/>
</g>
<defs>
<clipPath id="clip0_4_2171">
<rect width="160" height="45.0512" fill="white" transform="translate(0 0.474426)"/>
</clipPath>
</defs>
</svg>
