<svg width="230" height="66" viewBox="0 0 230 66" fill="none" xmlns="http://www.w3.org/2000/svg">
<g clip-path="url(#clip0_38_1018)">
<path d="M59.0862 45.3734L63.1185 44.5935C63.8819 41.7298 63.9991 41.2875 64.7611 38.4238L61.6508 35.7421C61.6481 33.5799 61.6467 32.5381 61.6426 30.3759L64.7446 27.6845C63.9729 24.8223 63.8544 24.3813 63.0827 21.5204L59.0477 20.7528C57.9631 18.8814 57.4422 17.9815 56.3577 16.1101L57.6985 12.2281C55.5997 10.1362 55.2759 9.81232 53.1771 7.72041L49.2992 9.0723C47.425 7.99327 46.5224 7.47512 44.6482 6.39609L43.8682 2.36385C41.0046 1.6004 40.5622 1.48326 37.6986 0.721191L35.0169 3.8315C32.8547 3.83425 31.8129 3.83563 29.6507 3.83977L26.9634 0.739106C24.1012 1.51083 23.6602 1.62934 20.7993 2.40106L20.0317 6.43605C18.1603 7.52059 17.2604 8.0415 15.389 9.12604L11.507 7.78518C9.41507 9.88398 9.09122 10.2078 6.99931 12.3066L8.35257 16.1845C7.27354 18.0587 6.75539 18.9613 5.67636 20.8355L1.64413 21.6155C0.880674 24.4791 0.763538 24.9215 0.00146484 27.7851L3.11177 30.4668C3.11453 32.629 3.1159 33.6709 3.12004 35.8331L0.0166236 38.5203C0.788343 41.3825 0.906857 41.8235 1.67858 44.6844L5.71357 45.452C6.79811 47.3234 7.31902 48.2233 8.40356 50.0947L7.0627 53.9767C9.1615 56.0686 9.48535 56.3925 11.5841 58.4844L15.462 57.1325C17.3362 58.2115 18.2389 58.7297 20.113 59.8087L20.893 63.841C23.7566 64.6044 24.199 64.7215 27.0626 65.4836L29.7444 62.3733C31.9066 62.3706 32.9484 62.3692 35.1106 62.3651L37.8019 65.4671C40.6642 64.6954 41.1052 64.5769 43.9661 63.8051L44.7336 59.7701C46.6051 58.6856 47.5049 58.1647 49.3764 57.0802L53.2584 58.421C55.3503 56.3222 55.6741 55.9984 57.7661 53.8996L56.4142 50.0217C57.4932 48.1475 58.0114 47.2449 59.0904 45.3707L59.0862 45.3734ZM32.4151 56.1307C19.6969 56.15 9.37235 45.8558 9.35305 33.1375C9.33376 20.4193 19.6279 10.0948 32.3462 10.0755C45.0644 10.0562 55.3889 20.3504 55.4082 33.0686C55.4275 45.7869 45.1333 56.1114 32.4151 56.1307Z" fill="black"/>
<path d="M33.6748 53.5743C36.2656 53.4351 38.7282 52.815 40.9758 51.8007V19.7344H43.0002V15.4583C40.2427 13.8225 37.069 12.8151 33.6748 12.6318V53.5743Z" fill="black"/>
<path d="M22.1969 15.4073V19.7358H24.1345V43.09C20.9277 40.9181 18.6029 37.5391 17.8146 33.6061L12.7461 38.4114C14.9923 46.8163 22.4436 53.0934 31.4355 53.5757V12.6318C28.0771 12.8124 24.9338 13.8004 22.1969 15.4073Z" fill="black"/>
<path d="M51.5879 35.8786C51.5879 35.8042 51.6017 35.7339 51.6292 35.6677C51.6568 35.6016 51.6954 35.5437 51.7436 35.4941C51.7918 35.4445 51.8497 35.4073 51.9172 35.3797C51.9834 35.3522 52.0537 35.3384 52.1281 35.3384C52.2025 35.3384 52.2728 35.3522 52.3389 35.3797C52.4051 35.4073 52.463 35.4459 52.5126 35.4941C52.5608 35.5437 52.5994 35.6002 52.627 35.6677C52.6545 35.7339 52.6683 35.8042 52.6683 35.8786C52.6683 35.953 52.6545 36.0233 52.627 36.0894C52.5994 36.1556 52.5608 36.2135 52.5126 36.2631C52.4643 36.3127 52.4065 36.3499 52.3389 36.3774C52.2728 36.405 52.2025 36.4188 52.1281 36.4188C52.0537 36.4188 51.9834 36.405 51.9172 36.3774C51.8511 36.3499 51.7932 36.3113 51.7436 36.2631C51.694 36.2148 51.6568 36.157 51.6292 36.0894C51.6017 36.0233 51.5879 35.953 51.5879 35.8786Z" fill="black"/>
<path d="M47.7259 36.0575C47.522 35.8701 47.3621 35.6469 47.245 35.3836C47.1995 35.2817 47.1623 35.1756 47.1347 35.0639C47.0024 35.2555 46.8371 35.4057 46.6372 35.5146C46.4305 35.6262 46.1935 35.6813 45.9261 35.6813C45.6919 35.6813 45.4728 35.6344 45.2702 35.5394C45.0662 35.4443 44.8898 35.312 44.7396 35.1425C44.5894 34.973 44.4709 34.7718 44.3841 34.5403C44.2973 34.3087 44.2545 34.0538 44.2545 33.7754C44.2545 33.4971 44.2973 33.249 44.3841 33.0147C44.4709 32.7805 44.5908 32.5779 44.7438 32.4084C44.8967 32.2389 45.0786 32.1066 45.2881 32.0115C45.4976 31.9164 45.7249 31.8696 45.9702 31.8696C46.2155 31.8696 46.4319 31.9109 46.6179 31.995C46.8054 32.079 46.9625 32.1989 47.0906 32.3546L48.0939 31.5347C47.9657 31.3735 47.821 31.237 47.6584 31.1254C47.4971 31.0138 47.3276 30.9242 47.1526 30.8581C46.9776 30.7905 46.7985 30.7423 46.6179 30.712C46.436 30.6817 46.2624 30.6665 46.0956 30.6665C45.6326 30.6665 45.2054 30.7395 44.8154 30.8842C44.4254 31.0289 44.0878 31.237 43.8039 31.5071C43.52 31.7772 43.2982 32.1052 43.1383 32.4897C42.9798 32.8742 42.8999 33.3041 42.8999 33.7782C42.8999 34.2522 42.9798 34.6822 43.1383 35.0667C43.2968 35.4512 43.5187 35.7791 43.8039 36.0492C44.0878 36.3194 44.4254 36.5274 44.8154 36.6721C45.2054 36.8168 45.6326 36.8899 46.0956 36.8899C46.5022 36.8899 46.8991 36.8058 47.2835 36.6391C47.5233 36.5343 47.7369 36.3951 47.9244 36.2201C47.8554 36.1705 47.7893 36.1182 47.7273 36.0617L47.7259 36.0575Z" fill="black"/>
<path d="M47.502 34.2495C47.502 33.9256 47.5557 33.6335 47.6646 33.3716C47.7734 33.1098 47.9209 32.8852 48.1097 32.6978C48.2985 32.5103 48.5203 32.367 48.7753 32.2664C49.0302 32.1658 49.3031 32.1162 49.5911 32.1162C49.8791 32.1162 50.152 32.1658 50.4069 32.2664C50.6619 32.367 50.8837 32.5103 51.0725 32.6978C51.2613 32.8852 51.4088 33.1098 51.5176 33.3716C51.6265 33.6335 51.6803 33.927 51.6803 34.2495C51.6803 34.5719 51.6265 34.8655 51.5176 35.1273C51.4088 35.3891 51.2613 35.6138 51.0725 35.8012C50.8837 35.9886 50.6619 36.1319 50.4069 36.2325C50.152 36.3331 49.8791 36.3827 49.5911 36.3827C49.3031 36.3827 49.0302 36.3331 48.7753 36.2325C48.5203 36.1319 48.2985 35.9886 48.1097 35.8012C47.9209 35.6138 47.7734 35.3905 47.6646 35.1273C47.5557 34.8655 47.502 34.5719 47.502 34.2495ZM48.6637 34.2495C48.6637 34.5568 48.745 34.8048 48.9076 34.9936C49.0702 35.1838 49.299 35.2775 49.5925 35.2775C49.886 35.2775 50.1148 35.1824 50.2774 34.9936C50.44 34.8034 50.5213 34.5554 50.5213 34.2495C50.5213 33.9435 50.44 33.6941 50.2774 33.5053C50.1148 33.3151 49.886 33.2214 49.5925 33.2214C49.299 33.2214 49.0702 33.3165 48.9076 33.5053C48.745 33.6955 48.6637 33.9435 48.6637 34.2495Z" fill="black"/>
<path d="M89.1324 26.2685C88.7934 27.1684 88.3235 27.9194 87.724 28.5202C87.1232 29.1211 86.4066 29.5703 85.5743 29.8708C84.7419 30.1712 83.8214 30.3214 82.8154 30.3214C81.2471 30.3214 79.9393 30.0072 78.8934 29.3774C77.8474 28.749 76.9861 27.969 76.3081 27.0388L78.6605 24.6272C79.2599 25.3824 79.8759 25.9681 80.5043 26.3842C81.1327 26.8004 81.8838 27.0085 82.7561 27.0085C83.7249 27.0085 84.5035 26.6847 85.0947 26.0356C85.6859 25.3865 85.9808 24.3847 85.9808 23.0286V9.6958H89.6409V23.1155C89.6409 24.3158 89.4714 25.3672 89.1324 26.2671V26.2685Z" fill="black"/>
<path d="M98.1507 9.55118H100.649V30.0293H97.1048V13.181L93.4446 14.198L92.6895 11.2931L98.1507 9.5498V9.55118Z" fill="black"/>
<path d="M132.369 23.8569C131.847 25.1054 131.105 26.1858 130.148 27.0953C129.189 28.0062 128.046 28.7214 126.72 29.2451C125.393 29.7674 123.937 30.0292 122.349 30.0292H114.767V9.6958H122.349C123.937 9.6958 125.395 9.95212 126.72 10.4661C128.046 10.9802 129.19 11.6912 130.148 12.6008C131.107 13.5117 131.847 14.5866 132.369 15.8255C132.891 17.0643 133.153 18.4011 133.153 19.8343C133.153 21.2675 132.891 22.6083 132.369 23.8569ZM128.896 17.1071C128.556 16.2609 128.081 15.5278 127.47 14.9049C126.858 14.282 126.116 13.7969 125.242 13.4455C124.368 13.0955 123.397 12.9205 122.33 12.9205H118.31V26.8059H122.33C123.398 26.8059 124.368 26.6364 125.242 26.296C126.116 25.9557 126.858 25.4788 127.47 24.867C128.082 24.2537 128.557 23.5247 128.896 22.6786C129.235 21.8325 129.406 20.9037 129.406 19.8921C129.406 18.8806 129.235 17.9532 128.896 17.1071Z" fill="black"/>
<path d="M157.06 23.901C156.538 25.1784 155.801 26.2974 154.852 27.2566C153.903 28.2157 152.78 28.975 151.483 29.5373C150.185 30.0982 148.753 30.3793 147.183 30.3793C145.614 30.3793 144.182 30.1037 142.884 29.5511C141.586 28.9998 140.472 28.2488 139.543 27.2993C138.613 26.3512 137.888 25.2363 137.365 23.9589C136.842 22.6814 136.581 21.3254 136.581 19.8922C136.581 18.459 136.842 17.1029 137.365 15.8255C137.887 14.548 138.623 13.429 139.572 12.4699C140.52 11.5107 141.645 10.7514 142.942 10.1892C144.239 9.62829 145.672 9.34717 147.241 9.34717C148.811 9.34717 150.243 9.62278 151.541 10.1754C152.838 10.7266 153.953 11.4777 154.881 12.4272C155.812 13.3766 156.536 14.4901 157.06 15.7676C157.582 17.0451 157.844 18.4011 157.844 19.8343C157.844 21.2675 157.582 22.6235 157.06 23.901ZM153.589 17.0892C153.25 16.2086 152.776 15.4382 152.165 14.7795C151.555 14.1208 150.824 13.5985 149.973 13.2113C149.12 12.824 148.191 12.6297 147.183 12.6297C146.176 12.6297 145.251 12.8185 144.409 13.1961C143.567 13.5737 142.845 14.0864 142.246 14.7354C141.645 15.3845 141.175 16.1493 140.837 17.0299C140.498 17.9119 140.329 18.8448 140.329 19.8329C140.329 20.821 140.498 21.7553 140.837 22.6359C141.176 23.5179 141.65 24.2868 142.261 24.9456C142.871 25.6043 143.602 26.1266 144.453 26.5138C145.305 26.901 146.235 27.0953 147.243 27.0953C148.25 27.0953 149.175 26.9065 150.017 26.529C150.859 26.1514 151.581 25.6387 152.18 24.9896C152.78 24.3406 153.25 23.5757 153.589 22.6952C153.928 21.8146 154.097 20.8802 154.097 19.8922C154.097 18.9041 153.928 17.9698 153.589 17.0892Z" fill="black"/>
<path d="M181.75 23.901C181.227 25.1784 180.49 26.2974 179.542 27.2566C178.592 28.2157 177.469 28.975 176.172 29.5373C174.874 30.0982 173.443 30.3793 171.873 30.3793C170.303 30.3793 168.871 30.1037 167.573 29.5511C166.275 28.9998 165.162 28.2488 164.233 27.2993C163.303 26.3512 162.578 25.2363 162.054 23.9589C161.532 22.6814 161.27 21.3254 161.27 19.8922C161.27 18.459 161.532 17.1029 162.054 15.8255C162.576 14.548 163.312 13.429 164.262 12.4699C165.21 11.5107 166.334 10.7514 167.631 10.1892C168.928 9.62829 170.361 9.34717 171.931 9.34717C173.5 9.34717 174.932 9.62278 176.23 10.1754C177.527 10.7266 178.642 11.4777 179.571 12.4272C180.501 13.3766 181.226 14.4901 181.75 15.7676C182.272 17.0451 182.534 18.4011 182.534 19.8343C182.534 21.2675 182.272 22.6235 181.75 23.901ZM178.278 17.0892C177.939 16.2086 177.465 15.4382 176.855 14.7795C176.244 14.1208 175.514 13.5985 174.662 13.2113C173.809 12.824 172.88 12.6297 171.873 12.6297C170.866 12.6297 169.941 12.8185 169.099 13.1961C168.257 13.5737 167.535 14.0864 166.935 14.7354C166.334 15.3845 165.865 16.1493 165.527 17.0299C165.188 17.9119 165.018 18.8448 165.018 19.8329C165.018 20.821 165.188 21.7553 165.527 22.6359C165.866 23.5179 166.34 24.2868 166.95 24.9456C167.561 25.6043 168.291 26.1266 169.143 26.5138C169.995 26.901 170.925 27.0953 171.932 27.0953C172.94 27.0953 173.864 26.9065 174.706 26.529C175.548 26.1514 176.27 25.6387 176.87 24.9896C177.469 24.3406 177.939 23.5757 178.278 22.6952C178.617 21.8146 178.787 20.8802 178.787 19.8922C178.787 18.9041 178.617 17.9698 178.278 17.0892Z" fill="black"/>
<path d="M199.904 30.0292L194.892 22.9418H190.405V30.0292H186.861V9.6958H195.924C197.086 9.6958 198.136 9.84601 199.076 10.1464C200.015 10.4468 200.81 10.8727 201.459 11.4239C202.108 11.9751 202.607 12.6545 202.955 13.4579C203.304 14.2613 203.478 15.1571 203.478 16.1452C203.478 16.9982 203.356 17.7575 203.115 18.4259C202.873 19.0942 202.539 19.6854 202.113 20.1981C201.688 20.7121 201.179 21.1476 200.588 21.5059C199.997 21.8642 199.343 22.1398 198.627 22.3341L204.117 30.032H199.906L199.904 30.0292ZM198.74 13.7804C198.001 13.2071 196.962 12.9205 195.623 12.9205H190.407V19.7764H195.652C196.933 19.7764 197.953 19.4649 198.711 18.8434C199.469 18.2205 199.848 17.3841 199.848 16.334C199.848 15.2067 199.478 14.3551 198.74 13.7818V13.7804Z" fill="black"/>
<path d="M94.3606 54.7541C93.7887 55.1896 93.1741 55.5672 92.5167 55.8869C91.858 56.2066 91.1373 56.4492 90.3532 56.6132C89.569 56.7772 88.7022 56.8598 87.7528 56.8598C86.2617 56.8598 84.8864 56.5884 83.6282 56.0468C82.3686 55.5052 81.28 54.7638 80.3608 53.8239C79.4402 52.8855 78.7195 51.7761 78.1972 50.4987C77.6749 49.2212 77.4131 47.8459 77.4131 46.3741C77.4131 44.9023 77.6694 43.5559 78.1834 42.2785C78.6961 41.001 79.4182 39.882 80.347 38.9229C81.2772 37.9637 82.3797 37.2086 83.6585 36.6573C84.936 36.1047 86.3499 35.8291 87.8988 35.8291C88.829 35.8291 89.6752 35.9063 90.44 36.062C91.2048 36.2177 91.9063 36.4355 92.5457 36.7152C93.1851 36.9963 93.7749 37.3298 94.3179 37.7171C94.8595 38.1043 95.3735 38.5301 95.8572 38.9945L93.5627 41.6377C92.7496 40.8825 91.887 40.272 90.9774 39.8076C90.0665 39.3432 89.0316 39.1103 87.8699 39.1103C86.9011 39.1103 86.0054 39.2991 85.1826 39.6767C84.3599 40.0543 83.6475 40.5669 83.048 41.216C82.4472 41.8651 81.9828 42.6244 81.6534 43.4967C81.3241 44.3676 81.1601 45.3075 81.1601 46.3148C81.1601 47.3222 81.3241 48.2662 81.6534 49.1468C81.9828 50.0287 82.4472 50.7977 83.048 51.4564C83.6475 52.1151 84.3599 52.6333 85.1826 53.0109C86.0054 53.3885 86.9011 53.5773 87.8699 53.5773C89.1088 53.5773 90.174 53.3402 91.0656 52.8662C91.9559 52.3921 92.8378 51.7472 93.7088 50.9341L96.0033 53.2576C95.481 53.8198 94.9325 54.3173 94.362 54.7541H94.3606Z" fill="black"/>
<path d="M118.746 50.3814C118.223 51.6589 117.486 52.7779 116.538 53.737C115.588 54.6962 114.465 55.4555 113.169 56.0177C111.87 56.5786 110.439 56.8597 108.869 56.8597C107.299 56.8597 105.868 56.5841 104.569 56.0315C103.271 55.4803 102.158 54.7293 101.229 53.7798C100.299 52.8317 99.5739 51.7168 99.0502 50.4393C98.5279 49.1618 98.2661 47.8058 98.2661 46.3726C98.2661 44.9394 98.5279 43.5834 99.0502 42.3059C99.5725 41.0285 100.308 39.9095 101.258 38.9503C102.206 37.9912 103.331 37.2319 104.627 36.6696C105.924 36.1088 107.357 35.8276 108.927 35.8276C110.496 35.8276 111.928 36.1033 113.226 36.6559C114.523 37.2071 115.638 37.9581 116.567 38.9076C117.497 39.8571 118.222 40.9706 118.746 42.2481C119.268 43.5255 119.53 44.8816 119.53 46.3148C119.53 47.7479 119.268 49.104 118.746 50.3814ZM115.276 43.5696C114.937 42.6891 114.463 41.9187 113.852 41.26C113.242 40.6013 112.511 40.079 111.66 39.6917C110.807 39.3045 109.878 39.1102 108.87 39.1102C107.863 39.1102 106.938 39.299 106.096 39.6766C105.254 40.0542 104.532 40.5668 103.933 41.2159C103.332 41.865 102.862 42.6298 102.524 43.5104C102.185 44.3923 102.016 45.3253 102.016 46.3134C102.016 47.3015 102.185 48.2358 102.524 49.1164C102.863 49.9983 103.337 50.7673 103.948 51.426C104.558 52.0847 105.289 52.607 106.14 52.9943C106.992 53.3815 107.922 53.5758 108.93 53.5758C109.937 53.5758 110.862 53.387 111.704 53.0094C112.546 52.6318 113.268 52.1192 113.867 51.4701C114.467 50.821 114.937 50.0562 115.276 49.1756C115.615 48.295 115.784 47.3607 115.784 46.3726C115.784 45.3846 115.615 44.4502 115.276 43.5696Z" fill="black"/>
<path d="M133.879 51.5147H133.763L127.402 41.9867V56.5102H123.858V36.1768H127.663L133.85 45.7916L140.038 36.1768H143.843V56.5102H140.298V41.9288L133.879 51.5147Z" fill="black"/>
<path d="M164.175 46.0255C163.748 46.8965 163.165 47.6227 162.428 48.2042C161.691 48.7858 160.827 49.2254 159.837 49.5258C158.846 49.8262 157.789 49.9764 156.664 49.9764H152.616V56.5126H149.072V36.1792H157.089C158.27 36.1792 159.341 36.3391 160.299 36.6588C161.258 36.9785 162.071 37.4388 162.739 38.0382C163.408 38.6391 163.92 39.3557 164.279 40.188C164.637 41.0204 164.816 41.9602 164.816 43.0062C164.816 44.1486 164.603 45.156 164.175 46.0269V46.0255ZM159.99 40.3203C159.194 39.7084 158.124 39.4011 156.783 39.4011H152.615V46.7504H156.783C158.144 46.7504 159.217 46.4155 160.004 45.7444C160.791 45.0733 161.185 44.1844 161.185 43.0764C161.185 41.8513 160.787 40.9335 159.99 40.3203Z" fill="black"/>
<path d="M185.905 56.5113H182.129L180.066 51.6026H170.451L168.359 56.5113H164.699L173.646 36.0332H176.957L185.904 56.5113H185.905ZM175.244 40.3025L171.759 48.4358H178.76L175.244 40.3025Z" fill="black"/>
<path d="M203.565 36.1782H207.11V56.5117H204.123L192.934 42.046V56.5117H189.389V36.1782H192.694L203.564 50.2373V36.1782H203.565Z" fill="black"/>
<path d="M221.925 56.5117H218.323V48.494L210.247 36.1782H214.458L220.151 45.1825L225.903 36.1782H229.999L221.923 48.4072V56.5117H221.925Z" fill="black"/>
</g>
<defs>
<clipPath id="clip0_38_1018">
<rect width="230" height="64.7611" fill="white" transform="translate(0 0.722656)"/>
</clipPath>
</defs>
</svg>
