<svg width="19" height="18" viewBox="0 0 19 18" fill="none" xmlns="http://www.w3.org/2000/svg">
<path d="M1.15403 0.865224L4.81028 0.0214739C5.20754 -0.0699323 5.61536 0.13749 5.77708 0.510146L7.46458 4.44765C7.61223 4.79218 7.51379 5.19647 7.222 5.43202L5.09153 7.17577C6.35715 9.87226 8.56848 12.1152 11.3212 13.4055L13.065 11.275C13.304 10.9832 13.7048 10.8848 14.0493 11.0324L17.9868 12.7199C18.363 12.8851 18.5704 13.293 18.479 13.6902L17.6353 17.3465C17.5474 17.7262 17.2099 18.0004 16.8126 18.0004C7.80911 18.0004 0.500122 10.7055 0.500122 1.68788C0.500122 1.29413 0.770826 0.953115 1.15403 0.865224Z" fill="white"/>
</svg>
