<svg width="40" height="41" viewBox="0 0 40 41" fill="none" xmlns="http://www.w3.org/2000/svg">
<rect x="0.5" y="1.22266" width="39" height="39" rx="19.5" fill="#181A20"/>
<rect x="0.5" y="1.22266" width="39" height="39" rx="19.5" stroke="#181A20"/>
<g clip-path="url(#clip0_38_1075)">
<path d="M21.3839 27.7827C20.9573 27.7827 20.5395 27.7027 20.1306 27.5427C19.7217 27.3827 19.3751 27.1427 19.0906 26.8227L17.5439 25.276C17.0106 24.7427 16.7439 24.1116 16.7439 23.3827C16.7439 22.6538 17.0106 22.0227 17.5439 21.4894L19.4106 19.6227C19.5173 19.5516 19.6417 19.516 19.7839 19.516C19.9262 19.516 20.0417 19.5694 20.1306 19.676C20.2195 19.7827 20.2639 19.9072 20.2639 20.0494C20.2639 20.1916 20.2284 20.316 20.1573 20.4227L18.2906 22.2894C17.9706 22.5738 17.8106 22.9383 17.8106 23.3827C17.8106 23.8272 17.9706 24.2094 18.2906 24.5294L19.8373 26.076C20.0862 26.3605 20.3973 26.5472 20.7706 26.636C21.1439 26.7249 21.5084 26.7338 21.8639 26.6627C22.2195 26.5916 22.5306 26.4316 22.7973 26.1827C23.0639 25.9338 23.2684 25.6316 23.4106 25.276L26.8239 15.7827C26.9662 15.3916 26.9928 14.9827 26.9039 14.556C26.8151 14.1294 26.6195 13.7649 26.3173 13.4627C26.015 13.1605 25.6506 12.9649 25.2239 12.876C24.7973 12.7872 24.3884 12.8138 23.9973 12.956L14.5039 16.3694C14.1484 16.5116 13.8462 16.716 13.5973 16.9827C13.3484 17.2494 13.1884 17.5694 13.1173 17.9427C13.0462 18.316 13.055 18.6805 13.1439 19.036C13.2328 19.3916 13.4195 19.6938 13.7039 19.9427L15.3039 21.5427C15.4817 21.6849 15.5439 21.8627 15.4906 22.076C15.4373 22.2894 15.3039 22.4227 15.0906 22.476C14.8773 22.5294 14.6995 22.4672 14.5573 22.2894L12.9573 20.6894C12.5662 20.2983 12.2906 19.836 12.1306 19.3027C11.9706 18.7694 11.9528 18.236 12.0773 17.7027C12.2017 17.1694 12.4506 16.6894 12.8239 16.2627C13.1973 15.836 13.6328 15.5338 14.1306 15.356L23.6239 11.9427C24.2284 11.7649 24.8328 11.7383 25.4373 11.8627C26.0417 11.9872 26.5662 12.2716 27.0106 12.716C27.4551 13.1605 27.7484 13.6938 27.8906 14.316C28.0328 14.9383 27.9973 15.5338 27.7839 16.1027L24.3706 25.596C24.1928 26.1294 23.8995 26.5827 23.4906 26.956C23.0817 27.3294 22.6106 27.5694 22.0773 27.676C21.8284 27.7472 21.5973 27.7827 21.3839 27.7827Z" fill="white"/>
</g>
<defs>
<clipPath id="clip0_38_1075">
<rect width="16" height="16" fill="white" transform="matrix(1 0 0 -1 12 27.7827)"/>
</clipPath>
</defs>
</svg>
