<svg width="15" height="13" viewBox="0 0 15 13" fill="none" xmlns="http://www.w3.org/2000/svg">
<path d="M12.9951 3.62891C12.9951 3.76562 12.9951 3.875 12.9951 4.01172C12.9951 7.8125 10.1241 12.1602 4.84671 12.1602C3.20609 12.1602 1.70218 11.6953 0.444367 10.875C0.663117 10.9023 0.881867 10.9297 1.12796 10.9297C2.4678 10.9297 3.69827 10.4648 4.68265 9.69922C3.42484 9.67188 2.35843 8.85156 2.00296 7.70312C2.19437 7.73047 2.35843 7.75781 2.54984 7.75781C2.79593 7.75781 3.06937 7.70312 3.28812 7.64844C1.97562 7.375 0.991242 6.22656 0.991242 4.83203V4.80469C1.37405 5.02344 1.8389 5.13281 2.30374 5.16016C1.51077 4.64062 1.01859 3.76562 1.01859 2.78125C1.01859 2.23438 1.1553 1.74219 1.4014 1.33203C2.82327 3.05469 4.95609 4.20312 7.33499 4.33984C7.2803 4.12109 7.25296 3.90234 7.25296 3.68359C7.25296 2.09766 8.53812 0.8125 10.1241 0.8125C10.9444 0.8125 11.6826 1.14062 12.2295 1.71484C12.8584 1.57812 13.4873 1.33203 14.0342 1.00391C13.8155 1.6875 13.378 2.23438 12.7764 2.58984C13.3506 2.53516 13.9248 2.37109 14.417 2.15234C14.0342 2.72656 13.542 3.21875 12.9951 3.62891Z" fill="#181A20"/>
</svg>
