<svg width="24" height="18" viewBox="0 0 24 18" fill="none" xmlns="http://www.w3.org/2000/svg">
<path d="M23.0627 2.13281C22.2471 2.49375 21.3752 2.7375 20.4564 2.85C21.3939 2.2875 22.1158 1.39687 22.4533 0.3375C21.5768 0.857812 20.6064 1.2375 19.5705 1.43906C18.7408 0.553125 17.5596 0 16.2564 0C13.7486 0 11.7189 2.03437 11.7189 4.54219C11.7189 4.89844 11.7564 5.24531 11.8361 5.57812C8.0627 5.39062 4.71582 3.58125 2.47988 0.829687C2.09082 1.5 1.86582 2.28281 1.86582 3.1125C1.86582 4.6875 2.67207 6.07969 3.89082 6.89531C3.14082 6.87656 2.4377 6.67031 1.82832 6.32812V6.38437C1.82832 8.5875 3.39395 10.4203 5.47051 10.8375C5.09082 10.9406 4.6877 10.9969 4.2752 10.9969C3.98457 10.9969 3.69863 10.9687 3.42207 10.9125C3.99863 12.7172 5.67676 14.0297 7.66426 14.0672C6.1127 15.2859 4.15332 16.0125 2.0252 16.0125C1.65957 16.0125 1.29863 15.9891 0.942383 15.9469C2.94395 17.25 5.32988 18 7.88926 18C16.2471 18 20.8127 11.0766 20.8127 5.07187C20.8127 4.875 20.808 4.67812 20.7986 4.48594C21.6846 3.84375 22.4533 3.04688 23.0627 2.13281Z" fill="#FFCD00"/>
</svg>
