<svg width="776" height="792" viewBox="0 0 776 792" fill="none" xmlns="http://www.w3.org/2000/svg">
<path d="M549.54 791.75H226.46C222.217 791.75 218.147 790.064 215.146 787.064C212.146 784.063 210.46 779.993 210.46 775.75V234C210.46 229.757 212.146 225.687 215.146 222.686C218.147 219.686 222.217 218 226.46 218H549.54C553.783 218 557.853 219.686 560.854 222.686C563.854 225.687 565.54 229.757 565.54 234V775.75C565.54 779.993 563.854 784.063 560.854 787.064C557.853 790.064 553.783 791.75 549.54 791.75ZM242.46 759.75H533.54V250H242.46V759.75Z" fill="black"/>
<path d="M343.49 320.43H290.75C286.507 320.43 282.437 318.744 279.436 315.744C276.436 312.743 274.75 308.673 274.75 304.43C274.75 300.187 276.436 296.117 279.436 293.116C282.437 290.116 286.507 288.43 290.75 288.43H343.49C347.733 288.43 351.803 290.116 354.804 293.116C357.804 296.117 359.49 300.187 359.49 304.43C359.49 308.673 357.804 312.743 354.804 315.744C351.803 318.744 347.733 320.43 343.49 320.43Z" fill="black"/>
<path d="M343.49 388.45H290.75C286.507 388.45 282.437 386.764 279.436 383.764C276.436 380.763 274.75 376.693 274.75 372.45C274.75 368.207 276.436 364.137 279.436 361.136C282.437 358.136 286.507 356.45 290.75 356.45H343.49C347.733 356.45 351.803 358.136 354.804 361.136C357.804 364.137 359.49 368.207 359.49 372.45C359.49 376.693 357.804 380.763 354.804 383.764C351.803 386.764 347.733 388.45 343.49 388.45Z" fill="black"/>
<path d="M343.49 456.47H290.75C286.507 456.47 282.437 454.784 279.436 451.784C276.436 448.783 274.75 444.713 274.75 440.47C274.75 436.227 276.436 432.157 279.436 429.156C282.437 426.156 286.507 424.47 290.75 424.47H343.49C347.733 424.47 351.803 426.156 354.804 429.156C357.804 432.157 359.49 436.227 359.49 440.47C359.49 444.713 357.804 448.783 354.804 451.784C351.803 454.784 347.733 456.47 343.49 456.47Z" fill="black"/>
<path d="M343.49 524.49H290.75C286.507 524.49 282.437 522.804 279.436 519.804C276.436 516.803 274.75 512.733 274.75 508.49C274.75 504.247 276.436 500.177 279.436 497.176C282.437 494.176 286.507 492.49 290.75 492.49H343.49C347.733 492.49 351.803 494.176 354.804 497.176C357.804 500.177 359.49 504.247 359.49 508.49C359.49 512.733 357.804 516.803 354.804 519.804C351.803 522.804 347.733 524.49 343.49 524.49Z" fill="black"/>
<path d="M343.49 592.52H290.75C286.507 592.52 282.437 590.834 279.436 587.834C276.436 584.833 274.75 580.763 274.75 576.52C274.75 572.277 276.436 568.207 279.436 565.206C282.437 562.206 286.507 560.52 290.75 560.52H343.49C347.733 560.52 351.803 562.206 354.804 565.206C357.804 568.207 359.49 572.277 359.49 576.52C359.49 580.763 357.804 584.833 354.804 587.834C351.803 590.834 347.733 592.52 343.49 592.52Z" fill="black"/>
<path d="M148.06 404.88H95.31C91.0665 404.88 86.9969 403.194 83.9963 400.194C80.9957 397.193 79.31 393.123 79.31 388.88C79.31 384.637 80.9957 380.567 83.9963 377.566C86.9969 374.566 91.0665 372.88 95.31 372.88H148.06C152.303 372.88 156.373 374.566 159.374 377.566C162.374 380.567 164.06 384.637 164.06 388.88C164.06 393.123 162.374 397.193 159.374 400.194C156.373 403.194 152.303 404.88 148.06 404.88Z" fill="black"/>
<path d="M148.06 472.9H95.31C91.0665 472.9 86.9969 471.214 83.9963 468.214C80.9957 465.213 79.31 461.143 79.31 456.9C79.31 452.657 80.9957 448.587 83.9963 445.586C86.9969 442.586 91.0665 440.9 95.31 440.9H148.06C152.303 440.9 156.373 442.586 159.374 445.586C162.374 448.587 164.06 452.657 164.06 456.9C164.06 461.143 162.374 465.213 159.374 468.214C156.373 471.214 152.303 472.9 148.06 472.9Z" fill="black"/>
<path d="M148.06 540.92H95.31C91.0665 540.92 86.9969 539.234 83.9963 536.234C80.9957 533.233 79.31 529.163 79.31 524.92C79.31 520.677 80.9957 516.607 83.9963 513.606C86.9969 510.606 91.0665 508.92 95.31 508.92H148.06C152.303 508.92 156.373 510.606 159.374 513.606C162.374 516.607 164.06 520.677 164.06 524.92C164.06 529.163 162.374 533.233 159.374 536.234C156.373 539.234 152.303 540.92 148.06 540.92Z" fill="black"/>
<path d="M148.06 608.94H95.31C91.0665 608.94 86.9969 607.254 83.9963 604.254C80.9957 601.253 79.31 597.183 79.31 592.94C79.31 588.697 80.9957 584.627 83.9963 581.626C86.9969 578.626 91.0665 576.94 95.31 576.94H148.06C152.303 576.94 156.373 578.626 159.374 581.626C162.374 584.627 164.06 588.697 164.06 592.94C164.06 597.183 162.374 601.253 159.374 604.254C156.373 607.254 152.303 608.94 148.06 608.94Z" fill="black"/>
<path d="M148.06 677H95.31C91.0665 677 86.9969 675.314 83.9963 672.314C80.9957 669.313 79.31 665.243 79.31 661C79.31 656.757 80.9957 652.687 83.9963 649.686C86.9969 646.686 91.0665 645 95.31 645H148.06C152.303 645 156.373 646.686 159.374 649.686C162.374 652.687 164.06 656.757 164.06 661C164.06 665.243 162.374 669.313 159.374 672.314C156.373 675.314 152.303 677 148.06 677Z" fill="black"/>
<path d="M680.69 404.88H627.94C623.697 404.88 619.627 403.194 616.626 400.194C613.626 397.193 611.94 393.123 611.94 388.88C611.94 384.637 613.626 380.567 616.626 377.566C619.627 374.566 623.697 372.88 627.94 372.88H680.69C684.933 372.88 689.003 374.566 692.004 377.566C695.004 380.567 696.69 384.637 696.69 388.88C696.69 393.123 695.004 397.193 692.004 400.194C689.003 403.194 684.933 404.88 680.69 404.88Z" fill="black"/>
<path d="M680.69 472.9H627.94C623.697 472.9 619.627 471.214 616.626 468.214C613.626 465.213 611.94 461.143 611.94 456.9C611.94 452.657 613.626 448.587 616.626 445.586C619.627 442.586 623.697 440.9 627.94 440.9H680.69C684.933 440.9 689.003 442.586 692.004 445.586C695.004 448.587 696.69 452.657 696.69 456.9C696.69 461.143 695.004 465.213 692.004 468.214C689.003 471.214 684.933 472.9 680.69 472.9Z" fill="black"/>
<path d="M680.69 540.92H627.94C623.697 540.92 619.627 539.234 616.626 536.234C613.626 533.233 611.94 529.163 611.94 524.92C611.94 520.677 613.626 516.607 616.626 513.606C619.627 510.606 623.697 508.92 627.94 508.92H680.69C684.933 508.92 689.003 510.606 692.004 513.606C695.004 516.607 696.69 520.677 696.69 524.92C696.69 529.163 695.004 533.233 692.004 536.234C689.003 539.234 684.933 540.92 680.69 540.92Z" fill="black"/>
<path d="M680.69 608.94H627.94C623.697 608.94 619.627 607.254 616.626 604.254C613.626 601.253 611.94 597.183 611.94 592.94C611.94 588.697 613.626 584.627 616.626 581.626C619.627 578.626 623.697 576.94 627.94 576.94H680.69C684.933 576.94 689.003 578.626 692.004 581.626C695.004 584.627 696.69 588.697 696.69 592.94C696.69 597.183 695.004 601.253 692.004 604.254C689.003 607.254 684.933 608.94 680.69 608.94Z" fill="black"/>
<path d="M680.69 677H627.94C623.697 677 619.627 675.314 616.626 672.314C613.626 669.313 611.94 665.243 611.94 661C611.94 656.757 613.626 652.687 616.626 649.686C619.627 646.686 623.697 645 627.94 645H680.69C684.933 645 689.003 646.686 692.004 649.686C695.004 652.687 696.69 656.757 696.69 661C696.69 665.243 695.004 669.313 692.004 672.314C689.003 675.314 684.933 677 680.69 677Z" fill="black"/>
<path d="M485.25 320.43H432.51C428.267 320.43 424.197 318.744 421.196 315.744C418.196 312.743 416.51 308.673 416.51 304.43C416.51 300.187 418.196 296.117 421.196 293.116C424.197 290.116 428.267 288.43 432.51 288.43H485.25C489.493 288.43 493.563 290.116 496.564 293.116C499.564 296.117 501.25 300.187 501.25 304.43C501.25 308.673 499.564 312.743 496.564 315.744C493.563 318.744 489.493 320.43 485.25 320.43Z" fill="black"/>
<path d="M485.25 388.45H432.51C428.267 388.45 424.197 386.764 421.196 383.764C418.196 380.763 416.51 376.693 416.51 372.45C416.51 368.207 418.196 364.137 421.196 361.136C424.197 358.136 428.267 356.45 432.51 356.45H485.25C489.493 356.45 493.563 358.136 496.564 361.136C499.564 364.137 501.25 368.207 501.25 372.45C501.25 376.693 499.564 380.763 496.564 383.764C493.563 386.764 489.493 388.45 485.25 388.45Z" fill="black"/>
<path d="M485.25 456.47H432.51C428.267 456.47 424.197 454.784 421.196 451.784C418.196 448.783 416.51 444.713 416.51 440.47C416.51 436.227 418.196 432.157 421.196 429.156C424.197 426.156 428.267 424.47 432.51 424.47H485.25C489.493 424.47 493.563 426.156 496.564 429.156C499.564 432.157 501.25 436.227 501.25 440.47C501.25 444.713 499.564 448.783 496.564 451.784C493.563 454.784 489.493 456.47 485.25 456.47Z" fill="black"/>
<path d="M485.25 524.49H432.51C428.267 524.49 424.197 522.804 421.196 519.804C418.196 516.803 416.51 512.733 416.51 508.49C416.51 504.247 418.196 500.177 421.196 497.176C424.197 494.176 428.267 492.49 432.51 492.49H485.25C489.493 492.49 493.563 494.176 496.564 497.176C499.564 500.177 501.25 504.247 501.25 508.49C501.25 512.733 499.564 516.803 496.564 519.804C493.563 522.804 489.493 524.49 485.25 524.49Z" fill="black"/>
<path d="M485.25 592.52H432.51C428.267 592.52 424.197 590.834 421.196 587.834C418.196 584.833 416.51 580.763 416.51 576.52C416.51 572.277 418.196 568.207 421.196 565.206C424.197 562.206 428.267 560.52 432.51 560.52H485.25C489.493 560.52 493.563 562.206 496.564 565.206C499.564 568.207 501.25 572.277 501.25 576.52C501.25 580.763 499.564 584.833 496.564 587.834C493.563 590.834 489.493 592.52 485.25 592.52Z" fill="black"/>
<path d="M439.37 791.75H336.63C332.387 791.75 328.317 790.064 325.316 787.064C322.316 784.063 320.63 779.993 320.63 775.75V643.88C320.63 639.637 322.316 635.567 325.316 632.566C328.317 629.566 332.387 627.88 336.63 627.88H439.37C443.613 627.88 447.683 629.566 450.684 632.566C453.684 635.567 455.37 639.637 455.37 643.88V775.75C455.37 779.993 453.684 784.063 450.684 787.064C447.683 790.064 443.613 791.75 439.37 791.75ZM352.63 759.75H423.37V659.88H352.63V759.75Z" fill="black"/>
<path d="M226.46 791.32H16.91C12.6665 791.32 8.59687 789.634 5.59629 786.634C2.59571 783.633 0.910004 779.563 0.910004 775.32V327.43C0.910004 323.187 2.59571 319.117 5.59629 316.116C8.59687 313.116 12.6665 311.43 16.91 311.43H226.46C230.703 311.43 234.773 313.116 237.774 316.116C240.774 319.117 242.46 323.187 242.46 327.43V775.32C242.46 779.563 240.774 783.633 237.774 786.634C234.773 789.634 230.703 791.32 226.46 791.32ZM32.91 759.32H210.46V343.43H32.91V759.32Z" fill="black"/>
<path d="M759.09 791.32H549.54C545.297 791.32 541.227 789.634 538.226 786.634C535.226 783.633 533.54 779.563 533.54 775.32V327.43C533.54 323.187 535.226 319.117 538.226 316.116C541.227 313.116 545.297 311.43 549.54 311.43H759.09C763.334 311.43 767.403 313.116 770.404 316.116C773.404 319.117 775.09 323.187 775.09 327.43V775.32C775.09 779.563 773.404 783.633 770.404 786.634C767.403 789.634 763.334 791.32 759.09 791.32ZM565.54 759.32H743.09V343.43H565.54V759.32Z" fill="black"/>
<path d="M464.61 250H311.39C307.147 250 303.077 248.314 300.076 245.314C297.076 242.313 295.39 238.243 295.39 234V122.66C295.39 118.417 297.076 114.347 300.076 111.346C303.077 108.346 307.147 106.66 311.39 106.66H464.61C468.853 106.66 472.923 108.346 475.924 111.346C478.924 114.347 480.61 118.417 480.61 122.66V234C480.61 238.243 478.924 242.313 475.924 245.314C472.923 248.314 468.853 250 464.61 250ZM327.39 218H448.61V138.66H327.39V218Z" fill="black"/>
<path d="M388 138.66C383.757 138.66 379.687 136.974 376.686 133.974C373.686 130.973 372 126.903 372 122.66V16.25C372 12.0065 373.686 7.93688 376.686 4.93629C379.687 1.93571 383.757 0.25 388 0.25C392.243 0.25 396.313 1.93571 399.314 4.93629C402.314 7.93688 404 12.0065 404 16.25V122.66C404 126.903 402.314 130.973 399.314 133.974C396.313 136.974 392.243 138.66 388 138.66Z" fill="black"/>
<path d="M549.54 791.75H226.46C222.217 791.75 218.147 790.064 215.146 787.064C212.146 784.063 210.46 779.993 210.46 775.75V234C210.46 229.757 212.146 225.687 215.146 222.686C218.147 219.686 222.217 218 226.46 218H549.54C553.783 218 557.853 219.686 560.854 222.686C563.854 225.687 565.54 229.757 565.54 234V775.75C565.54 779.993 563.854 784.063 560.854 787.064C557.853 790.064 553.783 791.75 549.54 791.75ZM242.46 759.75H533.54V250H242.46V759.75Z" fill="black"/>
<path d="M343.49 320.43H290.75C286.507 320.43 282.437 318.744 279.436 315.744C276.436 312.743 274.75 308.673 274.75 304.43C274.75 300.187 276.436 296.117 279.436 293.116C282.437 290.116 286.507 288.43 290.75 288.43H343.49C347.733 288.43 351.803 290.116 354.804 293.116C357.804 296.117 359.49 300.187 359.49 304.43C359.49 308.673 357.804 312.743 354.804 315.744C351.803 318.744 347.733 320.43 343.49 320.43Z" fill="black"/>
<path d="M343.49 388.45H290.75C286.507 388.45 282.437 386.764 279.436 383.764C276.436 380.763 274.75 376.693 274.75 372.45C274.75 368.207 276.436 364.137 279.436 361.136C282.437 358.136 286.507 356.45 290.75 356.45H343.49C347.733 356.45 351.803 358.136 354.804 361.136C357.804 364.137 359.49 368.207 359.49 372.45C359.49 376.693 357.804 380.763 354.804 383.764C351.803 386.764 347.733 388.45 343.49 388.45Z" fill="black"/>
<path d="M343.49 456.47H290.75C286.507 456.47 282.437 454.784 279.436 451.784C276.436 448.783 274.75 444.713 274.75 440.47C274.75 436.227 276.436 432.157 279.436 429.156C282.437 426.156 286.507 424.47 290.75 424.47H343.49C347.733 424.47 351.803 426.156 354.804 429.156C357.804 432.157 359.49 436.227 359.49 440.47C359.49 444.713 357.804 448.783 354.804 451.784C351.803 454.784 347.733 456.47 343.49 456.47Z" fill="black"/>
<path d="M343.49 524.49H290.75C286.507 524.49 282.437 522.804 279.436 519.804C276.436 516.803 274.75 512.733 274.75 508.49C274.75 504.247 276.436 500.177 279.436 497.176C282.437 494.176 286.507 492.49 290.75 492.49H343.49C347.733 492.49 351.803 494.176 354.804 497.176C357.804 500.177 359.49 504.247 359.49 508.49C359.49 512.733 357.804 516.803 354.804 519.804C351.803 522.804 347.733 524.49 343.49 524.49Z" fill="black"/>
<path d="M343.49 592.52H290.75C286.507 592.52 282.437 590.834 279.436 587.834C276.436 584.833 274.75 580.763 274.75 576.52C274.75 572.277 276.436 568.207 279.436 565.206C282.437 562.206 286.507 560.52 290.75 560.52H343.49C347.733 560.52 351.803 562.206 354.804 565.206C357.804 568.207 359.49 572.277 359.49 576.52C359.49 580.763 357.804 584.833 354.804 587.834C351.803 590.834 347.733 592.52 343.49 592.52Z" fill="black"/>
<path d="M148.06 404.88H95.31C91.0665 404.88 86.9969 403.194 83.9963 400.194C80.9957 397.193 79.31 393.123 79.31 388.88C79.31 384.637 80.9957 380.567 83.9963 377.566C86.9969 374.566 91.0665 372.88 95.31 372.88H148.06C152.303 372.88 156.373 374.566 159.374 377.566C162.374 380.567 164.06 384.637 164.06 388.88C164.06 393.123 162.374 397.193 159.374 400.194C156.373 403.194 152.303 404.88 148.06 404.88Z" fill="black"/>
<path d="M148.06 472.9H95.31C91.0665 472.9 86.9969 471.214 83.9963 468.214C80.9957 465.213 79.31 461.143 79.31 456.9C79.31 452.657 80.9957 448.587 83.9963 445.586C86.9969 442.586 91.0665 440.9 95.31 440.9H148.06C152.303 440.9 156.373 442.586 159.374 445.586C162.374 448.587 164.06 452.657 164.06 456.9C164.06 461.143 162.374 465.213 159.374 468.214C156.373 471.214 152.303 472.9 148.06 472.9Z" fill="black"/>
<path d="M148.06 540.92H95.31C91.0665 540.92 86.9969 539.234 83.9963 536.234C80.9957 533.233 79.31 529.163 79.31 524.92C79.31 520.677 80.9957 516.607 83.9963 513.606C86.9969 510.606 91.0665 508.92 95.31 508.92H148.06C152.303 508.92 156.373 510.606 159.374 513.606C162.374 516.607 164.06 520.677 164.06 524.92C164.06 529.163 162.374 533.233 159.374 536.234C156.373 539.234 152.303 540.92 148.06 540.92Z" fill="black"/>
<path d="M148.06 608.94H95.31C91.0665 608.94 86.9969 607.254 83.9963 604.254C80.9957 601.253 79.31 597.183 79.31 592.94C79.31 588.697 80.9957 584.627 83.9963 581.626C86.9969 578.626 91.0665 576.94 95.31 576.94H148.06C152.303 576.94 156.373 578.626 159.374 581.626C162.374 584.627 164.06 588.697 164.06 592.94C164.06 597.183 162.374 601.253 159.374 604.254C156.373 607.254 152.303 608.94 148.06 608.94Z" fill="black"/>
<path d="M148.06 677H95.31C91.0665 677 86.9969 675.314 83.9963 672.314C80.9957 669.313 79.31 665.243 79.31 661C79.31 656.757 80.9957 652.687 83.9963 649.686C86.9969 646.686 91.0665 645 95.31 645H148.06C152.303 645 156.373 646.686 159.374 649.686C162.374 652.687 164.06 656.757 164.06 661C164.06 665.243 162.374 669.313 159.374 672.314C156.373 675.314 152.303 677 148.06 677Z" fill="black"/>
<path d="M680.69 404.88H627.94C623.697 404.88 619.627 403.194 616.626 400.194C613.626 397.193 611.94 393.123 611.94 388.88C611.94 384.637 613.626 380.567 616.626 377.566C619.627 374.566 623.697 372.88 627.94 372.88H680.69C684.933 372.88 689.003 374.566 692.004 377.566C695.004 380.567 696.69 384.637 696.69 388.88C696.69 393.123 695.004 397.193 692.004 400.194C689.003 403.194 684.933 404.88 680.69 404.88Z" fill="black"/>
<path d="M680.69 472.9H627.94C623.697 472.9 619.627 471.214 616.626 468.214C613.626 465.213 611.94 461.143 611.94 456.9C611.94 452.657 613.626 448.587 616.626 445.586C619.627 442.586 623.697 440.9 627.94 440.9H680.69C684.933 440.9 689.003 442.586 692.004 445.586C695.004 448.587 696.69 452.657 696.69 456.9C696.69 461.143 695.004 465.213 692.004 468.214C689.003 471.214 684.933 472.9 680.69 472.9Z" fill="black"/>
<path d="M680.69 540.92H627.94C623.697 540.92 619.627 539.234 616.626 536.234C613.626 533.233 611.94 529.163 611.94 524.92C611.94 520.677 613.626 516.607 616.626 513.606C619.627 510.606 623.697 508.92 627.94 508.92H680.69C684.933 508.92 689.003 510.606 692.004 513.606C695.004 516.607 696.69 520.677 696.69 524.92C696.69 529.163 695.004 533.233 692.004 536.234C689.003 539.234 684.933 540.92 680.69 540.92Z" fill="black"/>
<path d="M680.69 608.94H627.94C623.697 608.94 619.627 607.254 616.626 604.254C613.626 601.253 611.94 597.183 611.94 592.94C611.94 588.697 613.626 584.627 616.626 581.626C619.627 578.626 623.697 576.94 627.94 576.94H680.69C684.933 576.94 689.003 578.626 692.004 581.626C695.004 584.627 696.69 588.697 696.69 592.94C696.69 597.183 695.004 601.253 692.004 604.254C689.003 607.254 684.933 608.94 680.69 608.94Z" fill="black"/>
<path d="M680.69 677H627.94C623.697 677 619.627 675.314 616.626 672.314C613.626 669.313 611.94 665.243 611.94 661C611.94 656.757 613.626 652.687 616.626 649.686C619.627 646.686 623.697 645 627.94 645H680.69C684.933 645 689.003 646.686 692.004 649.686C695.004 652.687 696.69 656.757 696.69 661C696.69 665.243 695.004 669.313 692.004 672.314C689.003 675.314 684.933 677 680.69 677Z" fill="black"/>
<path d="M485.25 320.43H432.51C428.267 320.43 424.197 318.744 421.196 315.744C418.196 312.743 416.51 308.673 416.51 304.43C416.51 300.187 418.196 296.117 421.196 293.116C424.197 290.116 428.267 288.43 432.51 288.43H485.25C489.493 288.43 493.563 290.116 496.564 293.116C499.564 296.117 501.25 300.187 501.25 304.43C501.25 308.673 499.564 312.743 496.564 315.744C493.563 318.744 489.493 320.43 485.25 320.43Z" fill="black"/>
<path d="M485.25 388.45H432.51C428.267 388.45 424.197 386.764 421.196 383.764C418.196 380.763 416.51 376.693 416.51 372.45C416.51 368.207 418.196 364.137 421.196 361.136C424.197 358.136 428.267 356.45 432.51 356.45H485.25C489.493 356.45 493.563 358.136 496.564 361.136C499.564 364.137 501.25 368.207 501.25 372.45C501.25 376.693 499.564 380.763 496.564 383.764C493.563 386.764 489.493 388.45 485.25 388.45Z" fill="black"/>
<path d="M485.25 456.47H432.51C428.267 456.47 424.197 454.784 421.196 451.784C418.196 448.783 416.51 444.713 416.51 440.47C416.51 436.227 418.196 432.157 421.196 429.156C424.197 426.156 428.267 424.47 432.51 424.47H485.25C489.493 424.47 493.563 426.156 496.564 429.156C499.564 432.157 501.25 436.227 501.25 440.47C501.25 444.713 499.564 448.783 496.564 451.784C493.563 454.784 489.493 456.47 485.25 456.47Z" fill="black"/>
<path d="M485.25 524.49H432.51C428.267 524.49 424.197 522.804 421.196 519.804C418.196 516.803 416.51 512.733 416.51 508.49C416.51 504.247 418.196 500.177 421.196 497.176C424.197 494.176 428.267 492.49 432.51 492.49H485.25C489.493 492.49 493.563 494.176 496.564 497.176C499.564 500.177 501.25 504.247 501.25 508.49C501.25 512.733 499.564 516.803 496.564 519.804C493.563 522.804 489.493 524.49 485.25 524.49Z" fill="black"/>
<path d="M485.25 592.52H432.51C428.267 592.52 424.197 590.834 421.196 587.834C418.196 584.833 416.51 580.763 416.51 576.52C416.51 572.277 418.196 568.207 421.196 565.206C424.197 562.206 428.267 560.52 432.51 560.52H485.25C489.493 560.52 493.563 562.206 496.564 565.206C499.564 568.207 501.25 572.277 501.25 576.52C501.25 580.763 499.564 584.833 496.564 587.834C493.563 590.834 489.493 592.52 485.25 592.52Z" fill="black"/>
<path d="M439.37 791.75H336.63C332.387 791.75 328.317 790.064 325.316 787.064C322.316 784.063 320.63 779.993 320.63 775.75V643.88C320.63 639.637 322.316 635.567 325.316 632.566C328.317 629.566 332.387 627.88 336.63 627.88H439.37C443.613 627.88 447.683 629.566 450.684 632.566C453.684 635.567 455.37 639.637 455.37 643.88V775.75C455.37 779.993 453.684 784.063 450.684 787.064C447.683 790.064 443.613 791.75 439.37 791.75ZM352.63 759.75H423.37V659.88H352.63V759.75Z" fill="black"/>
<path d="M226.46 791.32H16.91C12.6665 791.32 8.59687 789.634 5.59629 786.634C2.59571 783.633 0.910004 779.563 0.910004 775.32V327.43C0.910004 323.187 2.59571 319.117 5.59629 316.116C8.59687 313.116 12.6665 311.43 16.91 311.43H226.46C230.703 311.43 234.773 313.116 237.774 316.116C240.774 319.117 242.46 323.187 242.46 327.43V775.32C242.46 779.563 240.774 783.633 237.774 786.634C234.773 789.634 230.703 791.32 226.46 791.32ZM32.91 759.32H210.46V343.43H32.91V759.32Z" fill="black"/>
<path d="M759.09 791.32H549.54C545.297 791.32 541.227 789.634 538.226 786.634C535.226 783.633 533.54 779.563 533.54 775.32V327.43C533.54 323.187 535.226 319.117 538.226 316.116C541.227 313.116 545.297 311.43 549.54 311.43H759.09C763.334 311.43 767.403 313.116 770.404 316.116C773.404 319.117 775.09 323.187 775.09 327.43V775.32C775.09 779.563 773.404 783.633 770.404 786.634C767.403 789.634 763.334 791.32 759.09 791.32ZM565.54 759.32H743.09V343.43H565.54V759.32Z" fill="black"/>
<path d="M464.61 250H311.39C307.147 250 303.077 248.314 300.076 245.314C297.076 242.313 295.39 238.243 295.39 234V122.66C295.39 118.417 297.076 114.347 300.076 111.346C303.077 108.346 307.147 106.66 311.39 106.66H464.61C468.853 106.66 472.923 108.346 475.924 111.346C478.924 114.347 480.61 118.417 480.61 122.66V234C480.61 238.243 478.924 242.313 475.924 245.314C472.923 248.314 468.853 250 464.61 250ZM327.39 218H448.61V138.66H327.39V218Z" fill="black"/>
<path d="M388 138.66C383.757 138.66 379.687 136.974 376.686 133.974C373.686 130.973 372 126.903 372 122.66V16.25C372 12.0065 373.686 7.93688 376.686 4.93629C379.687 1.93571 383.757 0.25 388 0.25C392.243 0.25 396.313 1.93571 399.314 4.93629C402.314 7.93688 404 12.0065 404 16.25V122.66C404 126.903 402.314 130.973 399.314 133.974C396.313 136.974 392.243 138.66 388 138.66Z" fill="black"/>
</svg>
