<svg width="68" height="68" viewBox="0 0 68 68" fill="none" xmlns="http://www.w3.org/2000/svg">
<path d="M33.988 0.941002V0.944908C33.988 0.941002 33.9841 0.941002 33.9841 0.941002C33.6169 0.941002 33.2966 1.10116 33.0154 1.26912L1.63635 19.3861C1.03088 19.7338 0.874629 20.4173 0.859009 21.0541V62.3081C0.87854 64.9331 3.00741 67.0386 5.63241 67.0503H22.5114C23.3942 67.0503 24.1091 66.3355 24.1091 65.4526V39.5076C24.1247 38.6561 24.8122 37.9646 25.6638 37.9412H42.3318C43.1873 37.9647 43.8709 38.6561 43.8904 39.5076V65.4526C43.8904 66.3354 44.6052 67.0503 45.4842 67.0503H62.3632C64.9921 67.0386 67.121 64.9331 67.1405 62.3081L67.1327 21.0661C67.1132 20.4255 66.9647 19.7341 66.3632 19.3864L34.7772 1.14842C34.5428 1.01561 34.2771 0.941002 33.988 0.941002Z" fill="black"/>
</svg>
