<svg width="13" height="13" viewBox="0 0 13 13" fill="none" xmlns="http://www.w3.org/2000/svg">
<path d="M6.56967 3.32812C8.29232 3.32812 9.7142 4.75 9.7142 6.47266C9.7142 8.22266 8.29232 9.61719 6.56967 9.61719C4.81967 9.61719 3.42514 8.22266 3.42514 6.47266C3.42514 4.75 4.81967 3.32812 6.56967 3.32812ZM6.56967 8.52344C7.69076 8.52344 8.59311 7.62109 8.59311 6.47266C8.59311 5.35156 7.69076 4.44922 6.56967 4.44922C5.42123 4.44922 4.51889 5.35156 4.51889 6.47266C4.51889 7.62109 5.44857 8.52344 6.56967 8.52344ZM10.5619 3.21875C10.5619 3.62891 10.2337 3.95703 9.82357 3.95703C9.41342 3.95703 9.08529 3.62891 9.08529 3.21875C9.08529 2.80859 9.41342 2.48047 9.82357 2.48047C10.2337 2.48047 10.5619 2.80859 10.5619 3.21875ZM12.64 3.95703C12.6947 4.96875 12.6947 8.00391 12.64 9.01562C12.5853 10 12.3665 10.8477 11.6556 11.5859C10.9447 12.2969 10.0697 12.5156 9.08529 12.5703C8.07357 12.625 5.03842 12.625 4.0267 12.5703C3.04232 12.5156 2.19467 12.2969 1.45639 11.5859C0.74545 10.8477 0.5267 10 0.472012 9.01562C0.417325 8.00391 0.417325 4.96875 0.472012 3.95703C0.5267 2.97266 0.74545 2.09766 1.45639 1.38672C2.19467 0.675781 3.04232 0.457031 4.0267 0.402344C5.03842 0.347656 8.07357 0.347656 9.08529 0.402344C10.0697 0.457031 10.9447 0.675781 11.6556 1.38672C12.3665 2.09766 12.5853 2.97266 12.64 3.95703ZM11.3275 10.082C11.6556 9.28906 11.5736 7.375 11.5736 6.47266C11.5736 5.59766 11.6556 3.68359 11.3275 2.86328C11.1087 2.34375 10.6986 1.90625 10.179 1.71484C9.35873 1.38672 7.44467 1.46875 6.56967 1.46875C5.66732 1.46875 3.75326 1.38672 2.96029 1.71484C2.41342 1.93359 2.00326 2.34375 1.78451 2.86328C1.45639 3.68359 1.53842 5.59766 1.53842 6.47266C1.53842 7.375 1.45639 9.28906 1.78451 10.082C2.00326 10.6289 2.41342 11.0391 2.96029 11.2578C3.75326 11.5859 5.66732 11.5039 6.56967 11.5039C7.44467 11.5039 9.35873 11.5859 10.179 11.2578C10.6986 11.0391 11.1361 10.6289 11.3275 10.082Z" fill="#181A20"/>
</svg>
