<svg width="13" height="13" viewBox="0 0 13 13" fill="none" xmlns="http://www.w3.org/2000/svg">
<path d="M3.31387 12.7227H0.770898V4.54688H3.31387V12.7227ZM2.02871 3.45312C1.23574 3.45312 0.579492 2.76953 0.579492 1.94922C0.579492 1.15625 1.23574 0.5 2.02871 0.5C2.84902 0.5 3.50527 1.15625 3.50527 1.94922C3.50527 2.76953 2.84902 3.45312 2.02871 3.45312ZM12.8021 12.7227H10.2865V8.75781C10.2865 7.80078 10.2592 6.59766 8.94668 6.59766C7.63418 6.59766 7.44277 7.60938 7.44277 8.67578V12.7227H4.8998V4.54688H7.3334V5.66797H7.36074C7.71621 5.03906 8.53652 4.35547 9.76699 4.35547C12.3373 4.35547 12.8295 6.05078 12.8295 8.23828V12.7227H12.8021Z" fill="#181A20"/>
</svg>
