<svg width="18" height="18" viewBox="0 0 18 18" fill="none" xmlns="http://www.w3.org/2000/svg">
<path d="M0.653542 0.864858L4.30979 0.0211077C4.70706 -0.0702985 5.11487 0.137123 5.27659 0.50978L6.96409 4.44728C7.11174 4.79181 7.01331 5.19611 6.72151 5.43165L4.59104 7.17541C5.85667 9.87189 8.06799 12.1149 10.8207 13.4051L12.5645 11.2746C12.8035 10.9828 13.2043 10.8844 13.5489 11.032L17.4864 12.7195C17.8625 12.8848 18.0699 13.2926 17.9785 13.6899L17.1348 17.3461C17.0469 17.7258 16.7094 18 16.3121 18C7.30862 18 -0.000366211 10.7051 -0.000366211 1.68751C-0.000366211 1.29376 0.270338 0.952748 0.653542 0.864858Z" fill="#FFCD00"/>
</svg>
