<svg width="19" height="19" viewBox="0 0 19 19" fill="none" xmlns="http://www.w3.org/2000/svg">
<path d="M17.882 17.1029L13.802 12.9629C14.682 11.9229 15.252 10.7429 15.512 9.42288C15.772 8.10288 15.702 6.79288 15.302 5.49288C14.902 4.19288 14.192 3.08288 13.172 2.16288C12.152 1.24288 10.982 0.622881 9.662 0.302881C8.342 -0.0171185 7.032 0.002882 5.732 0.362883C4.432 0.722881 3.292 1.39288 2.312 2.37288C1.332 3.35288 0.661996 4.49288 0.301996 5.79288C-0.0580043 7.09288 -0.0780044 8.40288 0.241996 9.72288C0.561996 11.0429 1.182 12.2129 2.102 13.2329C3.022 14.2529 4.132 14.9629 5.432 15.3629C6.732 15.7629 8.042 15.8329 9.362 15.5729C10.682 15.3129 11.882 14.7429 12.962 13.8629L17.042 17.9429C17.162 18.0629 17.302 18.1129 17.462 18.0929C17.622 18.0729 17.752 18.0129 17.852 17.9129C17.952 17.8129 18.012 17.6829 18.032 17.5229C18.052 17.3629 18.002 17.2229 17.882 17.1029ZM1.262 7.92288C1.262 6.72288 1.562 5.62288 2.162 4.62288C2.762 3.62288 3.562 2.82288 4.562 2.22288C5.562 1.62288 6.662 1.32288 7.862 1.32288C9.062 1.32288 10.162 1.62288 11.162 2.22288C12.162 2.82288 12.962 3.62288 13.562 4.62288C14.162 5.62288 14.462 6.72288 14.462 7.92288C14.462 9.12288 14.162 10.2229 13.562 11.2229C12.962 12.2229 12.162 13.0229 11.162 13.6229C10.162 14.2229 9.062 14.5229 7.862 14.5229C6.662 14.5229 5.562 14.2229 4.562 13.6229C3.562 13.0229 2.762 12.2229 2.162 11.2229C1.562 10.2229 1.262 9.12288 1.262 7.92288Z" fill="#313131"/>
</svg>
