<svg width="91" height="91" viewBox="0 0 91 91" fill="none" xmlns="http://www.w3.org/2000/svg">
<path d="M57.9 64.4C56.7 64.5 55.6 63.9 54.5 63.3C44.4 57.4 35.8 49 29.8 39C28.7 37.3 27.7 35.3 28.1 33.3C28.8 29.5 33.6 28 35 24.4C36.3 21.3 34.6 17.8 32.6 15.1C29.3 10.6 25.1 6.69999 20.3 3.79999C18 2.39999 15.5 1.19999 12.8 0.99999C0.700001 0.39999 2.14577e-06 20.6 1.6 28.5C3.3 36.7 7.4 44.3 12.2 51.2C23.5 67.6 39 81.5 57.8 88.1C64.4 90.4 71.5 91.8 78.3 90.2C81.7 89.4 84.9 87.9 87.3 85.3C89.7 82.8 91 79.2 90.4 75.8C89.8 72.3 87.4 69.5 85 67C81.5 63.4 77.6 60.2 73.4 57.4C72.6 56.9 71.8 56.4 70.9 56.3C69.9 56.2 69 56.7 68.1 57.2C65.6 58.6 63.3 60.3 61.3 62.2C60.4 63.1 59.4 64 58.2 64.2C58.1 64.3 58 64.4 57.9 64.4Z" fill="black"/>
</svg>
