<svg width="94" height="94" viewBox="0 0 94 94" fill="none" xmlns="http://www.w3.org/2000/svg">
<path d="M47 93.379C-14.68 90.4688 -14.691 3.598 46.875 0.624997C59.187 0.593747 71.004 5.457 79.723 14.145C88.4457 22.8325 93.356 34.629 93.371 46.938C93.3905 59.25 88.5116 71.059 79.812 79.77C71.1128 88.4809 59.308 93.375 47 93.379ZM33.664 70.379C39.6601 91.453 53.32 93.461 60.258 70.379H33.664ZM66.742 70.379L66.7459 70.3751C65.3943 75.5353 63.2147 80.4371 60.2811 84.8911C68.0545 82.145 74.8011 77.0786 79.6051 70.3751L66.742 70.379ZM14.285 70.379V70.3751C18.9256 77.0626 25.601 82.0701 33.32 84.6481C30.4958 80.2653 28.4294 75.4411 27.2106 70.3751L14.285 70.379ZM68.203 64.129L83.289 64.1251C88.3632 53.2731 88.3632 40.7271 83.2851 29.8751H68.2031C70.2539 41.1991 70.2539 52.8011 68.2031 64.1251L68.203 64.129ZM32.199 64.129L61.851 64.1251C64.0268 52.8131 64.0229 41.1871 61.8432 29.8751H32.1982C30.163 41.1991 30.163 52.8011 32.1982 64.1251L32.199 64.129ZM10.761 64.129L25.851 64.1251C23.9369 52.7891 23.9369 41.2111 25.8471 29.8751H10.7531C5.8703 40.7701 5.8703 53.2301 10.7609 64.1251L10.761 64.129ZM66.745 23.625H79.6H79.5961C74.7953 16.9375 68.0611 11.883 60.2991 9.137C63.221 13.5823 65.3974 18.4768 66.745 23.625ZM33.667 23.625H60.245C53.2177 0.593996 39.647 2.57 33.667 23.625ZM14.276 23.625H27.202C28.4168 18.5586 30.4676 13.7344 33.2723 9.348C25.5614 11.93 18.897 16.9378 14.276 23.625Z" fill="black"/>
</svg>
